<mxfile host="app.diagrams.net" modified="2024-04-15T18:41:09.674Z" agent="Mozilla/5.0 (Windows NT 10.0; Win64; x64) AppleWebKit/537.36 (KHTML, like Gecko) Chrome/123.0.0.0 Safari/537.36" etag="a6o_PdRfiui_BIupYSy8" version="24.2.5" type="device">
  <diagram name="Page-1" id="74e2e168-ea6b-b213-b513-2b3c1d86103e">
    <mxGraphModel dx="2134" dy="420" grid="1" gridSize="10" guides="1" tooltips="1" connect="1" arrows="1" fold="1" page="1" pageScale="1" pageWidth="1100" pageHeight="850" background="none" math="0" shadow="0">
      <root>
        <mxCell id="0" />
        <mxCell id="1" parent="0" />
        <mxCell id="77e6c97f196da883-1" value="WXS Joint Calling Pipeline" style="swimlane;html=1;childLayout=stackLayout;startSize=20;rounded=0;shadow=0;labelBackgroundColor=none;strokeWidth=1;fontFamily=Verdana;fontSize=12;align=center;fillColor=#f5f5f5;fontColor=#333333;strokeColor=#666666;" parent="1" vertex="1">
          <mxGeometry x="-730" y="10" width="700" height="310" as="geometry" />
        </mxCell>
        <mxCell id="Nnj7Wq_yGs6EVmE-nwQ6-24" value="" style="edgeStyle=orthogonalEdgeStyle;rounded=0;orthogonalLoop=1;jettySize=auto;html=1;fillColor=#f5f5f5;strokeColor=#999999;" parent="77e6c97f196da883-1" edge="1">
          <mxGeometry relative="1" as="geometry">
            <mxPoint x="490" y="250" as="sourcePoint" />
          </mxGeometry>
        </mxCell>
        <mxCell id="Nnj7Wq_yGs6EVmE-nwQ6-13" value="" style="edgeStyle=orthogonalEdgeStyle;rounded=0;orthogonalLoop=1;jettySize=auto;html=1;strokeWidth=3;dashed=1;" parent="77e6c97f196da883-1" edge="1">
          <mxGeometry relative="1" as="geometry">
            <mxPoint x="225" y="217.5" as="sourcePoint" />
          </mxGeometry>
        </mxCell>
        <mxCell id="Nnj7Wq_yGs6EVmE-nwQ6-19" value="" style="edgeStyle=orthogonalEdgeStyle;rounded=0;orthogonalLoop=1;jettySize=auto;html=1;fillColor=#f5f5f5;strokeColor=#999999;exitX=1;exitY=0.5;exitDx=0;exitDy=0;" parent="77e6c97f196da883-1" edge="1">
          <mxGeometry relative="1" as="geometry">
            <mxPoint x="360" y="175" as="sourcePoint" />
          </mxGeometry>
        </mxCell>
        <mxCell id="Nnj7Wq_yGs6EVmE-nwQ6-26" value="" style="edgeStyle=orthogonalEdgeStyle;rounded=0;orthogonalLoop=1;jettySize=auto;html=1;strokeWidth=3;" parent="77e6c97f196da883-1" edge="1">
          <mxGeometry relative="1" as="geometry">
            <mxPoint x="490" y="360" as="sourcePoint" />
          </mxGeometry>
        </mxCell>
        <mxCell id="Nnj7Wq_yGs6EVmE-nwQ6-32" value="" style="edgeStyle=orthogonalEdgeStyle;rounded=0;orthogonalLoop=1;jettySize=auto;html=1;strokeColor=#999999;" parent="77e6c97f196da883-1" edge="1">
          <mxGeometry relative="1" as="geometry">
            <mxPoint x="475" y="112.5" as="sourcePoint" />
          </mxGeometry>
        </mxCell>
        <mxCell id="Nnj7Wq_yGs6EVmE-nwQ6-37" value="" style="edgeStyle=orthogonalEdgeStyle;rounded=1;orthogonalLoop=1;jettySize=auto;html=1;strokeWidth=3;" parent="77e6c97f196da883-1" edge="1">
          <mxGeometry relative="1" as="geometry">
            <mxPoint x="730" y="425" as="sourcePoint" />
          </mxGeometry>
        </mxCell>
        <mxCell id="Nnj7Wq_yGs6EVmE-nwQ6-18" value="" style="edgeStyle=orthogonalEdgeStyle;rounded=1;orthogonalLoop=1;jettySize=auto;html=1;entryX=0;entryY=0.5;entryDx=0;entryDy=0;strokeWidth=3;" parent="77e6c97f196da883-1" edge="1">
          <mxGeometry relative="1" as="geometry">
            <Array as="points">
              <mxPoint x="310" y="360" />
            </Array>
            <mxPoint x="310" y="190" as="sourcePoint" />
          </mxGeometry>
        </mxCell>
        <mxCell id="Nnj7Wq_yGs6EVmE-nwQ6-34" value="" style="edgeStyle=orthogonalEdgeStyle;rounded=1;orthogonalLoop=1;jettySize=auto;html=1;strokeWidth=3;" parent="77e6c97f196da883-1" edge="1">
          <mxGeometry relative="1" as="geometry">
            <Array as="points">
              <mxPoint x="560" y="425" />
            </Array>
            <mxPoint x="560" y="375" as="sourcePoint" />
          </mxGeometry>
        </mxCell>
        <mxCell id="Nnj7Wq_yGs6EVmE-nwQ6-51" value="" style="edgeStyle=orthogonalEdgeStyle;rounded=1;orthogonalLoop=1;jettySize=auto;html=1;strokeWidth=3;dashed=1;" parent="77e6c97f196da883-1" edge="1">
          <mxGeometry relative="1" as="geometry">
            <mxPoint x="115" y="175" as="sourcePoint" />
          </mxGeometry>
        </mxCell>
        <mxCell id="xKvOOhsYieL9IacCuS3Y-6" value="Joint Prep" style="swimlane;html=1;startSize=20;" parent="77e6c97f196da883-1" vertex="1">
          <mxGeometry y="20" width="140" height="290" as="geometry" />
        </mxCell>
        <mxCell id="xKvOOhsYieL9IacCuS3Y-21" value="Sample gVCF" style="rounded=1;whiteSpace=wrap;html=1;shadow=0;labelBackgroundColor=none;strokeWidth=3;fontFamily=Verdana;fontSize=8;align=center;fillColor=#ffe6cc;strokeColor=#d79b00;" parent="xKvOOhsYieL9IacCuS3Y-6" vertex="1">
          <mxGeometry x="20" y="210" width="100" height="30" as="geometry" />
        </mxCell>
        <mxCell id="xKvOOhsYieL9IacCuS3Y-22" value="Sample gVCF" style="rounded=1;whiteSpace=wrap;html=1;shadow=0;labelBackgroundColor=none;strokeWidth=3;fontFamily=Verdana;fontSize=8;align=center;fillColor=#ffe6cc;strokeColor=#d79b00;" parent="xKvOOhsYieL9IacCuS3Y-6" vertex="1">
          <mxGeometry x="20" y="220" width="100" height="30" as="geometry" />
        </mxCell>
        <mxCell id="xKvOOhsYieL9IacCuS3Y-23" value="Sample gVCF" style="rounded=1;whiteSpace=wrap;html=1;shadow=0;labelBackgroundColor=none;strokeWidth=3;fontFamily=Verdana;fontSize=8;align=center;fillColor=#ffe6cc;strokeColor=#d79b00;" parent="xKvOOhsYieL9IacCuS3Y-6" vertex="1">
          <mxGeometry x="20" y="230" width="100" height="30" as="geometry" />
        </mxCell>
        <mxCell id="xKvOOhsYieL9IacCuS3Y-24" value="Sample gVCF" style="rounded=1;whiteSpace=wrap;html=1;shadow=0;labelBackgroundColor=none;strokeWidth=3;fontFamily=Verdana;fontSize=12;align=center;fillColor=#ffe6cc;strokeColor=#d79b00;" parent="xKvOOhsYieL9IacCuS3Y-6" vertex="1">
          <mxGeometry x="20" y="240" width="100" height="30" as="geometry" />
        </mxCell>
        <mxCell id="xKvOOhsYieL9IacCuS3Y-30" value="WGS Interval List" style="shape=hexagon;perimeter=hexagonPerimeter2;whiteSpace=wrap;html=1;fixedSize=1;fillColor=#d5e8d4;strokeColor=#82b366;" parent="xKvOOhsYieL9IacCuS3Y-6" vertex="1">
          <mxGeometry x="10" y="70" width="120" height="40" as="geometry" />
        </mxCell>
        <mxCell id="xKvOOhsYieL9IacCuS3Y-25" value="Split Intervals" style="swimlane;html=1;startSize=20;" parent="77e6c97f196da883-1" vertex="1">
          <mxGeometry x="140" y="20" width="140" height="290" as="geometry" />
        </mxCell>
        <mxCell id="xKvOOhsYieL9IacCuS3Y-116" value="Split Intervals" style="shape=or;whiteSpace=wrap;html=1;strokeWidth=1;" parent="xKvOOhsYieL9IacCuS3Y-25" vertex="1">
          <mxGeometry y="120" width="60" height="80" as="geometry" />
        </mxCell>
        <mxCell id="xKvOOhsYieL9IacCuS3Y-32" value="" style="edgeStyle=orthogonalEdgeStyle;rounded=1;orthogonalLoop=1;jettySize=auto;html=1;entryX=0;entryY=0.25;entryDx=0;entryDy=0;entryPerimeter=0;" parent="77e6c97f196da883-1" source="xKvOOhsYieL9IacCuS3Y-30" target="xKvOOhsYieL9IacCuS3Y-116" edge="1">
          <mxGeometry relative="1" as="geometry">
            <Array as="points">
              <mxPoint x="130" y="160" />
            </Array>
          </mxGeometry>
        </mxCell>
        <mxCell id="xKvOOhsYieL9IacCuS3Y-110" value="Consolidate gVCFs" style="swimlane;html=1;startSize=20;" parent="77e6c97f196da883-1" vertex="1">
          <mxGeometry x="280" y="20" width="140" height="290" as="geometry" />
        </mxCell>
        <mxCell id="xKvOOhsYieL9IacCuS3Y-111" value="GenomicsDBImport" style="rhombus;whiteSpace=wrap;html=1;rounded=0;shadow=0;labelBackgroundColor=none;strokeWidth=1;fontFamily=Verdana;fontSize=12;align=center;fillColor=#dae8fc;strokeColor=#6c8ebf;" parent="xKvOOhsYieL9IacCuS3Y-110" vertex="1">
          <mxGeometry x="20" y="50" width="110" height="60" as="geometry" />
        </mxCell>
        <mxCell id="xKvOOhsYieL9IacCuS3Y-113" value="GenomicsDBImport" style="rhombus;whiteSpace=wrap;html=1;rounded=0;shadow=0;labelBackgroundColor=none;strokeWidth=1;fontFamily=Verdana;fontSize=12;align=center;fillColor=#dae8fc;strokeColor=#6c8ebf;" parent="xKvOOhsYieL9IacCuS3Y-110" vertex="1">
          <mxGeometry x="20" y="127" width="110" height="65" as="geometry" />
        </mxCell>
        <mxCell id="xKvOOhsYieL9IacCuS3Y-115" value="GenomicsDBImport" style="rhombus;whiteSpace=wrap;html=1;rounded=0;shadow=0;labelBackgroundColor=none;strokeWidth=1;fontFamily=Verdana;fontSize=12;align=center;fillColor=#dae8fc;strokeColor=#6c8ebf;" parent="xKvOOhsYieL9IacCuS3Y-110" vertex="1">
          <mxGeometry x="20" y="210" width="110" height="60" as="geometry" />
        </mxCell>
        <mxCell id="xKvOOhsYieL9IacCuS3Y-112" value="Joint Calling" style="swimlane;html=1;startSize=20;" parent="77e6c97f196da883-1" vertex="1">
          <mxGeometry x="420" y="20" width="140" height="290" as="geometry" />
        </mxCell>
        <mxCell id="xKvOOhsYieL9IacCuS3Y-123" value="GenotypeGVCFs" style="rhombus;whiteSpace=wrap;html=1;rounded=0;shadow=0;labelBackgroundColor=none;strokeWidth=1;fontFamily=Verdana;fontSize=12;align=center;fillColor=#dae8fc;strokeColor=#6c8ebf;" parent="xKvOOhsYieL9IacCuS3Y-112" vertex="1">
          <mxGeometry x="20" y="50" width="100" height="60" as="geometry" />
        </mxCell>
        <mxCell id="xKvOOhsYieL9IacCuS3Y-124" value="GenotypeGVCFs" style="rhombus;whiteSpace=wrap;html=1;rounded=0;shadow=0;labelBackgroundColor=none;strokeWidth=1;fontFamily=Verdana;fontSize=12;align=center;fillColor=#dae8fc;strokeColor=#6c8ebf;" parent="xKvOOhsYieL9IacCuS3Y-112" vertex="1">
          <mxGeometry x="20" y="130" width="100" height="60" as="geometry" />
        </mxCell>
        <mxCell id="xKvOOhsYieL9IacCuS3Y-125" value="GenotypeGVCFs" style="rhombus;whiteSpace=wrap;html=1;rounded=0;shadow=0;labelBackgroundColor=none;strokeWidth=1;fontFamily=Verdana;fontSize=12;align=center;fillColor=#dae8fc;strokeColor=#6c8ebf;" parent="xKvOOhsYieL9IacCuS3Y-112" vertex="1">
          <mxGeometry x="20" y="210" width="100" height="60" as="geometry" />
        </mxCell>
        <mxCell id="xKvOOhsYieL9IacCuS3Y-114" value="Joint VCFs" style="swimlane;html=1;startSize=20;" parent="77e6c97f196da883-1" vertex="1">
          <mxGeometry x="560" y="20" width="140" height="290" as="geometry" />
        </mxCell>
        <mxCell id="xKvOOhsYieL9IacCuS3Y-130" value="Interval Joint VCF" style="rounded=1;whiteSpace=wrap;html=1;shadow=0;labelBackgroundColor=none;strokeWidth=3;fontFamily=Verdana;fontSize=12;align=center;fillColor=#ffe6cc;strokeColor=#d79b00;" parent="xKvOOhsYieL9IacCuS3Y-114" vertex="1">
          <mxGeometry x="20" y="65" width="100" height="30" as="geometry" />
        </mxCell>
        <mxCell id="xKvOOhsYieL9IacCuS3Y-132" value="Interval Joint VCF" style="rounded=1;whiteSpace=wrap;html=1;shadow=0;labelBackgroundColor=none;strokeWidth=3;fontFamily=Verdana;fontSize=12;align=center;fillColor=#ffe6cc;strokeColor=#d79b00;" parent="xKvOOhsYieL9IacCuS3Y-114" vertex="1">
          <mxGeometry x="20" y="225" width="100" height="30" as="geometry" />
        </mxCell>
        <mxCell id="xKvOOhsYieL9IacCuS3Y-131" value="Interval Joint VCF" style="rounded=1;whiteSpace=wrap;html=1;shadow=0;labelBackgroundColor=none;strokeWidth=3;fontFamily=Verdana;fontSize=12;align=center;fillColor=#ffe6cc;strokeColor=#d79b00;" parent="xKvOOhsYieL9IacCuS3Y-114" vertex="1">
          <mxGeometry x="20" y="145" width="100" height="30" as="geometry" />
        </mxCell>
        <mxCell id="xKvOOhsYieL9IacCuS3Y-117" value="" style="edgeStyle=orthogonalEdgeStyle;rounded=1;orthogonalLoop=1;jettySize=auto;html=1;entryX=0;entryY=0.75;entryDx=0;entryDy=0;entryPerimeter=0;exitX=1;exitY=0.5;exitDx=0;exitDy=0;" parent="77e6c97f196da883-1" source="xKvOOhsYieL9IacCuS3Y-24" target="xKvOOhsYieL9IacCuS3Y-116" edge="1">
          <mxGeometry relative="1" as="geometry">
            <mxPoint x="1040" y="260" as="sourcePoint" />
            <mxPoint x="1050" y="310" as="targetPoint" />
            <Array as="points">
              <mxPoint x="130" y="275" />
              <mxPoint x="130" y="200" />
            </Array>
          </mxGeometry>
        </mxCell>
        <mxCell id="xKvOOhsYieL9IacCuS3Y-126" value="" style="edgeStyle=orthogonalEdgeStyle;rounded=1;orthogonalLoop=1;jettySize=auto;html=1;" parent="77e6c97f196da883-1" source="xKvOOhsYieL9IacCuS3Y-111" target="xKvOOhsYieL9IacCuS3Y-123" edge="1">
          <mxGeometry relative="1" as="geometry" />
        </mxCell>
        <mxCell id="xKvOOhsYieL9IacCuS3Y-127" value="" style="edgeStyle=orthogonalEdgeStyle;rounded=1;orthogonalLoop=1;jettySize=auto;html=1;" parent="77e6c97f196da883-1" source="xKvOOhsYieL9IacCuS3Y-113" target="xKvOOhsYieL9IacCuS3Y-124" edge="1">
          <mxGeometry relative="1" as="geometry" />
        </mxCell>
        <mxCell id="xKvOOhsYieL9IacCuS3Y-128" value="" style="edgeStyle=orthogonalEdgeStyle;rounded=1;orthogonalLoop=1;jettySize=auto;html=1;" parent="77e6c97f196da883-1" source="xKvOOhsYieL9IacCuS3Y-115" target="xKvOOhsYieL9IacCuS3Y-125" edge="1">
          <mxGeometry relative="1" as="geometry" />
        </mxCell>
        <mxCell id="xKvOOhsYieL9IacCuS3Y-133" value="" style="edgeStyle=orthogonalEdgeStyle;rounded=1;orthogonalLoop=1;jettySize=auto;html=1;" parent="77e6c97f196da883-1" source="xKvOOhsYieL9IacCuS3Y-123" target="xKvOOhsYieL9IacCuS3Y-130" edge="1">
          <mxGeometry relative="1" as="geometry" />
        </mxCell>
        <mxCell id="xKvOOhsYieL9IacCuS3Y-134" value="" style="edgeStyle=orthogonalEdgeStyle;rounded=1;orthogonalLoop=1;jettySize=auto;html=1;" parent="77e6c97f196da883-1" source="xKvOOhsYieL9IacCuS3Y-124" target="xKvOOhsYieL9IacCuS3Y-131" edge="1">
          <mxGeometry relative="1" as="geometry" />
        </mxCell>
        <mxCell id="xKvOOhsYieL9IacCuS3Y-135" value="" style="edgeStyle=orthogonalEdgeStyle;rounded=1;orthogonalLoop=1;jettySize=auto;html=1;" parent="77e6c97f196da883-1" source="xKvOOhsYieL9IacCuS3Y-125" target="xKvOOhsYieL9IacCuS3Y-132" edge="1">
          <mxGeometry relative="1" as="geometry" />
        </mxCell>
        <mxCell id="6bDRXCBrTSoavjDhb9g9-4" value="" style="edgeStyle=orthogonalEdgeStyle;rounded=1;orthogonalLoop=1;jettySize=auto;html=1;exitX=0.7;exitY=0.1;exitDx=0;exitDy=0;exitPerimeter=0;entryX=0;entryY=0.5;entryDx=0;entryDy=0;" parent="77e6c97f196da883-1" source="xKvOOhsYieL9IacCuS3Y-116" target="xKvOOhsYieL9IacCuS3Y-111" edge="1">
          <mxGeometry relative="1" as="geometry">
            <mxPoint x="180" y="290" as="sourcePoint" />
            <mxPoint x="210" y="290" as="targetPoint" />
          </mxGeometry>
        </mxCell>
        <mxCell id="6bDRXCBrTSoavjDhb9g9-5" value="" style="edgeStyle=orthogonalEdgeStyle;rounded=1;orthogonalLoop=1;jettySize=auto;html=1;exitX=1;exitY=0.5;exitDx=0;exitDy=0;exitPerimeter=0;entryX=0;entryY=0.5;entryDx=0;entryDy=0;" parent="77e6c97f196da883-1" source="xKvOOhsYieL9IacCuS3Y-116" target="xKvOOhsYieL9IacCuS3Y-113" edge="1">
          <mxGeometry relative="1" as="geometry">
            <mxPoint x="230" y="200" as="sourcePoint" />
            <mxPoint x="348" y="152" as="targetPoint" />
          </mxGeometry>
        </mxCell>
        <mxCell id="6bDRXCBrTSoavjDhb9g9-6" value="" style="edgeStyle=orthogonalEdgeStyle;rounded=1;orthogonalLoop=1;jettySize=auto;html=1;exitX=0.7;exitY=0.9;exitDx=0;exitDy=0;exitPerimeter=0;entryX=0;entryY=0.5;entryDx=0;entryDy=0;" parent="77e6c97f196da883-1" source="xKvOOhsYieL9IacCuS3Y-116" target="xKvOOhsYieL9IacCuS3Y-115" edge="1">
          <mxGeometry relative="1" as="geometry">
            <mxPoint x="240" y="240" as="sourcePoint" />
            <mxPoint x="358" y="192" as="targetPoint" />
          </mxGeometry>
        </mxCell>
        <mxCell id="xKvOOhsYieL9IacCuS3Y-1" style="edgeStyle=orthogonalEdgeStyle;rounded=0;orthogonalLoop=1;jettySize=auto;html=1;exitX=1;exitY=0.5;exitDx=0;exitDy=0;" parent="1" edge="1">
          <mxGeometry relative="1" as="geometry">
            <mxPoint x="215" y="155" as="targetPoint" />
            <mxPoint x="215" y="155" as="sourcePoint" />
          </mxGeometry>
        </mxCell>
      </root>
    </mxGraphModel>
  </diagram>
</mxfile>
